<svg width="357" height="227" viewBox="0 0 357 227" fill="none" xmlns="http://www.w3.org/2000/svg">
<path d="M147.477 6.58001C158.343 2.75271 169.431 0.0506137 181.044 0.00131372C223.251 -0.187586 252.588 20.0001 270.805 57.2381C274.361 64.5148 276.365 72.555 279.248 80.703C288.496 79.586 298.154 80.563 307.336 83.783C334.078 93.162 350.438 111.937 355.604 139.804C359.744 162.127 354.75 182.306 339.614 199.743C320.699 221.532 285.177 226.378 262.567 210.042C248.933 200.186 243.2 183.818 248.44 169.716C254.009 154.76 271.01 150.522 281.317 161.478C285.383 165.806 285.251 171.071 284.767 176.344C294.228 179.3 304.495 171.761 304.963 161.519C305.488 150.054 300.602 141.085 290.532 135.886C269.671 125.127 231.694 130.95 222.076 163.95C215.941 185 221.066 203.89 235.702 220.185C237.616 222.312 239.669 224.308 241.977 226.69C240.72 226.805 239.734 226.977 238.741 226.977C185.093 226.977 131.437 227.059 77.7889 226.912C43.1299 226.821 11.5999 203.956 2.81195 171.909C-3.93905 147.319 1.67095 124.856 17.431 104.964C28.347 91.183 42.1529 81.918 59.8439 79.298C68.8619 77.96 77.8219 78.732 86.6919 80.744C88.0969 81.064 89.542 81.179 91.144 81.409C94.043 64.1535 100.047 48.5815 110.757 35.2107C115.339 29.4862 120.801 24.4187 126.172 19.3923C129.146 16.6081 132.759 14.522 136.094 12.1238C136.094 12.1238 137.26 11.36 141.761 9.16711C146.262 6.97421 147.494 6.57181 147.494 6.57181L147.477 6.58001Z" fill="url(#paint0_linear_1014_4)"/>
<defs>
<linearGradient id="paint0_linear_1014_4" x1="98.445" y1="-0.253284" x2="261.885" y2="227.249" gradientUnits="userSpaceOnUse">
<stop stop-color="#FF8E10"/>
<stop offset="0.778846" stop-color="#FB5200"/>
</linearGradient>
</defs>
</svg>
